<svg width="24" height="25" viewBox="0 0 24 25" fill="none" xmlns="http://www.w3.org/2000/svg">
<path d="M11.7998 17.3105C11.5719 17.3105 11.3646 17.2194 11.1777 17.0371L5.97559 11.7119C5.89811 11.639 5.83887 11.557 5.79785 11.4658C5.76139 11.3701 5.74316 11.2676 5.74316 11.1582C5.74316 11.0078 5.77734 10.8711 5.8457 10.748C5.91862 10.625 6.01432 10.5293 6.13281 10.4609C6.2513 10.388 6.38574 10.3516 6.53613 10.3516C6.75488 10.3516 6.94629 10.4336 7.11035 10.5977L12.1348 15.7451H11.4717L16.4893 10.5977C16.6533 10.4336 16.8447 10.3516 17.0635 10.3516C17.2139 10.3516 17.3483 10.388 17.4668 10.4609C17.5853 10.5293 17.6787 10.625 17.7471 10.748C17.82 10.8711 17.8564 11.0078 17.8564 11.1582C17.8564 11.3724 17.779 11.557 17.624 11.7119L12.4219 17.0371C12.3353 17.1283 12.2396 17.1966 12.1348 17.2422C12.0299 17.2878 11.9183 17.3105 11.7998 17.3105Z" fill="#4285F4"/>
</svg>
