<svg width="34" height="26" viewBox="0 0 34 26" fill="none" xmlns="http://www.w3.org/2000/svg">
<rect width="34" height="26" rx="13" fill="#222426"/>
<path d="M8.90483 18V16.6676L12.4396 13.2024C12.7777 12.861 13.0594 12.5578 13.2848 12.2926C13.5102 12.0275 13.6792 11.7706 13.7919 11.522C13.9046 11.2734 13.9609 11.0083 13.9609 10.7266C13.9609 10.4051 13.888 10.13 13.7422 9.90128C13.5964 9.66927 13.3958 9.49029 13.1406 9.36435C12.8854 9.2384 12.5954 9.17543 12.2706 9.17543C11.9358 9.17543 11.6425 9.24503 11.3906 9.38423C11.1387 9.52012 10.9432 9.71401 10.804 9.96591C10.6681 10.2178 10.6001 10.5178 10.6001 10.8658H8.84517C8.84517 10.2195 8.99266 9.65767 9.28764 9.1804C9.58262 8.70312 9.98864 8.33357 10.5057 8.07173C11.026 7.8099 11.6226 7.67898 12.2955 7.67898C12.9782 7.67898 13.5781 7.80658 14.0952 8.06179C14.6122 8.317 15.0133 8.66667 15.2983 9.1108C15.5866 9.55492 15.7308 10.062 15.7308 10.6321C15.7308 11.0133 15.6579 11.3878 15.5121 11.7557C15.3662 12.1236 15.1094 12.5312 14.7415 12.9787C14.3769 13.4261 13.8648 13.968 13.2053 14.6044L11.4503 16.3892V16.4588H15.8849V18H8.90483ZM17.5007 14.7237C17.5073 14.379 17.5554 14.0327 17.6449 13.6847C17.7377 13.3333 17.8835 12.9621 18.0824 12.571C18.2813 12.1766 18.5414 11.7424 18.8629 11.2685L21.1996 7.81818H23.0888L20.5483 11.5369C20.6709 11.5038 20.7985 11.4773 20.9311 11.4574C21.0637 11.4342 21.1996 11.4226 21.3388 11.4226C21.9586 11.4226 22.5104 11.5634 22.9943 11.8452C23.4815 12.1269 23.8643 12.5163 24.1428 13.0135C24.4212 13.5107 24.5604 14.0824 24.5604 14.7287C24.5604 15.4015 24.4079 15.9948 24.103 16.5085C23.8014 17.0189 23.3854 17.4183 22.8551 17.7067C22.3281 17.995 21.7282 18.1392 21.0554 18.1392C20.3958 18.1392 19.7959 18 19.2557 17.7216C18.7188 17.4432 18.2912 17.0488 17.973 16.5384C17.6548 16.0279 17.4974 15.4231 17.5007 14.7237ZM19.2955 14.7635C19.2955 15.1314 19.3684 15.4579 19.5142 15.7429C19.6634 16.0279 19.8688 16.2517 20.1307 16.4141C20.3958 16.5765 20.7008 16.6577 21.0455 16.6577C21.3868 16.6577 21.6884 16.5781 21.9503 16.419C22.2121 16.2566 22.4176 16.0346 22.5668 15.7528C22.7159 15.4678 22.7905 15.1413 22.7905 14.7734C22.7905 14.4055 22.7159 14.0807 22.5668 13.799C22.4176 13.514 22.2121 13.2919 21.9503 13.1328C21.6884 12.9704 21.3868 12.8892 21.0455 12.8892C20.7008 12.8892 20.3958 12.9687 20.1307 13.1278C19.8688 13.2869 19.6634 13.5073 19.5142 13.7891C19.3684 14.0708 19.2955 14.3956 19.2955 14.7635Z" fill="#5C7CFA"/>
</svg>
