<svg width="256" height="26" viewBox="0 0 256 26" fill="none" xmlns="http://www.w3.org/2000/svg">
<rect width="34" height="26" rx="13" fill="#222426"/>
<path d="M8.90483 18V16.6676L12.4396 13.2024C12.7777 12.861 13.0594 12.5578 13.2848 12.2926C13.5102 12.0275 13.6792 11.7706 13.7919 11.522C13.9046 11.2734 13.9609 11.0083 13.9609 10.7266C13.9609 10.4051 13.888 10.13 13.7422 9.90128C13.5964 9.66927 13.3958 9.49029 13.1406 9.36435C12.8854 9.2384 12.5954 9.17543 12.2706 9.17543C11.9358 9.17543 11.6425 9.24503 11.3906 9.38423C11.1387 9.52012 10.9432 9.71401 10.804 9.96591C10.6681 10.2178 10.6001 10.5178 10.6001 10.8658H8.84517C8.84517 10.2195 8.99266 9.65767 9.28764 9.1804C9.58262 8.70312 9.98864 8.33357 10.5057 8.07173C11.026 7.8099 11.6226 7.67898 12.2955 7.67898C12.9782 7.67898 13.5781 7.80658 14.0952 8.06179C14.6122 8.317 15.0133 8.66667 15.2983 9.1108C15.5866 9.55492 15.7308 10.062 15.7308 10.6321C15.7308 11.0133 15.6579 11.3878 15.5121 11.7557C15.3662 12.1236 15.1094 12.5312 14.7415 12.9787C14.3769 13.4261 13.8648 13.968 13.2053 14.6044L11.4503 16.3892V16.4588H15.8849V18H8.90483ZM17.5007 14.7237C17.5073 14.379 17.5554 14.0327 17.6449 13.6847C17.7377 13.3333 17.8835 12.9621 18.0824 12.571C18.2813 12.1766 18.5414 11.7424 18.8629 11.2685L21.1996 7.81818H23.0888L20.5483 11.5369C20.6709 11.5038 20.7985 11.4773 20.9311 11.4574C21.0637 11.4342 21.1996 11.4226 21.3388 11.4226C21.9586 11.4226 22.5104 11.5634 22.9943 11.8452C23.4815 12.1269 23.8643 12.5163 24.1428 13.0135C24.4212 13.5107 24.5604 14.0824 24.5604 14.7287C24.5604 15.4015 24.4079 15.9948 24.103 16.5085C23.8014 17.0189 23.3854 17.4183 22.8551 17.7067C22.3281 17.995 21.7282 18.1392 21.0554 18.1392C20.3958 18.1392 19.7959 18 19.2557 17.7216C18.7188 17.4432 18.2912 17.0488 17.973 16.5384C17.6548 16.0279 17.4974 15.4231 17.5007 14.7237ZM19.2955 14.7635C19.2955 15.1314 19.3684 15.4579 19.5142 15.7429C19.6634 16.0279 19.8688 16.2517 20.1307 16.4141C20.3958 16.5765 20.7008 16.6577 21.0455 16.6577C21.3868 16.6577 21.6884 16.5781 21.9503 16.419C22.2121 16.2566 22.4176 16.0346 22.5668 15.7528C22.7159 15.4678 22.7905 15.1413 22.7905 14.7734C22.7905 14.4055 22.7159 14.0807 22.5668 13.799C22.4176 13.514 22.2121 13.2919 21.9503 13.1328C21.6884 12.9704 21.3868 12.8892 21.0455 12.8892C20.7008 12.8892 20.3958 12.9687 20.1307 13.1278C19.8688 13.2869 19.6634 13.5073 19.5142 13.7891C19.3684 14.0708 19.2955 14.3956 19.2955 14.7635Z" fill="#5C7CFA"/>
<path d="M47.3714 7.81818V18H45.7308L40.9332 11.0646H40.8487V18H39.0043V7.81818H40.6548L45.4474 14.7585H45.5369V7.81818H47.3714ZM52.6824 18.1491C51.9167 18.1491 51.2555 17.9901 50.6987 17.6719C50.1452 17.3504 49.7193 16.8963 49.421 16.3097C49.1227 15.7197 48.9735 15.0253 48.9735 14.2266C48.9735 13.4411 49.1227 12.7517 49.421 12.1584C49.7226 11.5618 50.1435 11.0978 50.6838 10.7663C51.224 10.4316 51.8587 10.2642 52.5879 10.2642C53.0585 10.2642 53.5027 10.3404 53.9203 10.4929C54.3412 10.642 54.7124 10.8741 55.0339 11.1889C55.3587 11.5038 55.6139 11.9048 55.7995 12.392C55.9851 12.8759 56.0779 13.4527 56.0779 14.1222V14.674H49.8187V13.4609H54.3528C54.3495 13.1162 54.2749 12.8097 54.1291 12.5412C53.9833 12.2694 53.7794 12.0556 53.5176 11.8999C53.2591 11.7441 52.9574 11.6662 52.6127 11.6662C52.2449 11.6662 51.9217 11.7557 51.6433 11.9347C51.3649 12.1103 51.1478 12.3423 50.992 12.6307C50.8395 12.9157 50.7617 13.2289 50.7583 13.5703V14.6293C50.7583 15.0734 50.8395 15.4545 51.002 15.7727C51.1644 16.0876 51.3914 16.3295 51.6831 16.4986C51.9747 16.6643 52.3161 16.7472 52.7072 16.7472C52.969 16.7472 53.206 16.7107 53.4181 16.6378C53.6303 16.5616 53.8142 16.4505 53.97 16.3047C54.1258 16.1589 54.2434 15.9782 54.323 15.7628L56.0034 15.9517C55.8973 16.3958 55.6951 16.7836 55.3968 17.1151C55.1019 17.4432 54.724 17.6984 54.2633 17.8807C53.8026 18.0597 53.2756 18.1491 52.6824 18.1491ZM59.1355 18L56.9778 10.3636H58.8123L60.1547 15.733H60.2243L61.5964 10.3636H63.411L64.7832 15.7031H64.8578L66.1802 10.3636H68.0197L65.8571 18H63.9828L62.551 12.8395H62.4466L61.0147 18H59.1355ZM72.8285 18V7.81818H76.6467C77.4289 7.81818 78.0851 7.95407 78.6154 8.22585C79.149 8.49763 79.5517 8.87879 79.8235 9.36932C80.0986 9.85653 80.2362 10.425 80.2362 11.0746C80.2362 11.7275 80.0969 12.2943 79.8185 12.7749C79.5434 13.2521 79.1374 13.6217 78.6005 13.8835C78.0636 14.142 77.404 14.2713 76.6218 14.2713H73.9023V12.7401H76.3732C76.8306 12.7401 77.2051 12.6771 77.4968 12.5511C77.7885 12.4219 78.0039 12.2346 78.1431 11.9893C78.2856 11.7408 78.3569 11.4358 78.3569 11.0746C78.3569 10.7133 78.2856 10.4051 78.1431 10.1499C78.0006 9.89134 77.7835 9.69579 77.4918 9.56321C77.2002 9.42732 76.824 9.35938 76.3633 9.35938H74.6729V18H72.8285ZM78.0884 13.3864L80.609 18H78.5508L76.0749 13.3864H78.0884ZM85.1257 18.1491C84.3601 18.1491 83.6989 17.9901 83.142 17.6719C82.5885 17.3504 82.1626 16.8963 81.8643 16.3097C81.5661 15.7197 81.4169 15.0253 81.4169 14.2266C81.4169 13.4411 81.5661 12.7517 81.8643 12.1584C82.166 11.5618 82.5869 11.0978 83.1271 10.7663C83.6674 10.4316 84.3021 10.2642 85.0312 10.2642C85.5019 10.2642 85.946 10.3404 86.3636 10.4929C86.7846 10.642 87.1558 10.8741 87.4773 11.1889C87.8021 11.5038 88.0573 11.9048 88.2429 12.392C88.4285 12.8759 88.5213 13.4527 88.5213 14.1222V14.674H82.2621V13.4609H86.7962C86.7929 13.1162 86.7183 12.8097 86.5724 12.5412C86.4266 12.2694 86.2228 12.0556 85.9609 11.8999C85.7024 11.7441 85.4008 11.6662 85.0561 11.6662C84.6882 11.6662 84.3651 11.7557 84.0866 11.9347C83.8082 12.1103 83.5911 12.3423 83.4354 12.6307C83.2829 12.9157 83.205 13.2289 83.2017 13.5703V14.6293C83.2017 15.0734 83.2829 15.4545 83.4453 15.7727C83.6077 16.0876 83.8348 16.3295 84.1264 16.4986C84.4181 16.6643 84.7595 16.7472 85.1506 16.7472C85.4124 16.7472 85.6494 16.7107 85.8615 16.6378C86.0736 16.5616 86.2576 16.4505 86.4134 16.3047C86.5691 16.1589 86.6868 15.9782 86.7663 15.7628L88.4467 15.9517C88.3407 16.3958 88.1385 16.7836 87.8402 17.1151C87.5452 17.4432 87.1674 17.6984 86.7067 17.8807C86.246 18.0597 85.719 18.1491 85.1257 18.1491ZM90.0439 20.8636V10.3636H91.8137V11.6264H91.9181C92.0109 11.4408 92.1419 11.2436 92.3109 11.0348C92.4799 10.8227 92.7086 10.642 92.997 10.4929C93.2853 10.3404 93.6532 10.2642 94.1007 10.2642C94.6906 10.2642 95.2226 10.415 95.6966 10.7166C96.1738 11.0149 96.5517 11.4574 96.8301 12.044C97.1118 12.6274 97.2527 13.3433 97.2527 14.1918C97.2527 15.0303 97.1151 15.7429 96.84 16.3295C96.5649 16.9162 96.1904 17.3636 95.7164 17.6719C95.2425 17.9801 94.7056 18.1342 94.1056 18.1342C93.6681 18.1342 93.3052 18.0613 93.0169 17.9155C92.7285 17.7696 92.4965 17.594 92.3208 17.3885C92.1485 17.1797 92.0143 16.9825 91.9181 16.7969H91.8436V20.8636H90.0439ZM91.8088 14.1818C91.8088 14.6757 91.8784 15.1082 92.0176 15.4794C92.1601 15.8506 92.3639 16.1406 92.6291 16.3494C92.8975 16.5549 93.2224 16.6577 93.6035 16.6577C94.0012 16.6577 94.3343 16.5516 94.6028 16.3395C94.8713 16.1241 95.0734 15.8307 95.2093 15.4595C95.3485 15.085 95.4181 14.6591 95.4181 14.1818C95.4181 13.7079 95.3502 13.2869 95.2143 12.919C95.0784 12.5511 94.8762 12.2628 94.6078 12.054C94.3393 11.8452 94.0046 11.7408 93.6035 11.7408C93.219 11.7408 92.8926 11.8419 92.6241 12.044C92.3556 12.2462 92.1518 12.5296 92.0126 12.8942C91.8767 13.2588 91.8088 13.688 91.8088 14.1818ZM100.594 7.81818V18H98.7939V7.81818H100.594ZM102.444 18V10.3636H104.244V18H102.444ZM103.349 9.27983C103.064 9.27983 102.819 9.18537 102.613 8.99645C102.408 8.80421 102.305 8.57386 102.305 8.3054C102.305 8.03362 102.408 7.80327 102.613 7.61435C102.819 7.42211 103.064 7.32599 103.349 7.32599C103.637 7.32599 103.883 7.42211 104.085 7.61435C104.29 7.80327 104.393 8.03362 104.393 8.3054C104.393 8.57386 104.29 8.80421 104.085 8.99645C103.883 9.18537 103.637 9.27983 103.349 9.27983ZM109.475 18.1491C108.71 18.1491 108.048 17.9901 107.492 17.6719C106.938 17.3504 106.512 16.8963 106.214 16.3097C105.916 15.7197 105.767 15.0253 105.767 14.2266C105.767 13.4411 105.916 12.7517 106.214 12.1584C106.516 11.5618 106.936 11.0978 107.477 10.7663C108.017 10.4316 108.652 10.2642 109.381 10.2642C109.852 10.2642 110.296 10.3404 110.713 10.4929C111.134 10.642 111.505 10.8741 111.827 11.1889C112.152 11.5038 112.407 11.9048 112.593 12.392C112.778 12.8759 112.871 13.4527 112.871 14.1222V14.674H106.612V13.4609H111.146C111.142 13.1162 111.068 12.8097 110.922 12.5412C110.776 12.2694 110.572 12.0556 110.311 11.8999C110.052 11.7441 109.75 11.6662 109.406 11.6662C109.038 11.6662 108.715 11.7557 108.436 11.9347C108.158 12.1103 107.941 12.3423 107.785 12.6307C107.633 12.9157 107.555 13.2289 107.551 13.5703V14.6293C107.551 15.0734 107.633 15.4545 107.795 15.7727C107.957 16.0876 108.184 16.3295 108.476 16.4986C108.768 16.6643 109.109 16.7472 109.5 16.7472C109.762 16.7472 109.999 16.7107 110.211 16.6378C110.423 16.5616 110.607 16.4505 110.763 16.3047C110.919 16.1589 111.036 15.9782 111.116 15.7628L112.796 15.9517C112.69 16.3958 112.488 16.7836 112.19 17.1151C111.895 17.4432 111.517 17.6984 111.056 17.8807C110.596 18.0597 110.069 18.1491 109.475 18.1491ZM120.429 12.3821L118.788 12.5611C118.742 12.3954 118.661 12.2396 118.545 12.0938C118.432 11.9479 118.28 11.8303 118.087 11.7408C117.895 11.6513 117.66 11.6065 117.381 11.6065C117.007 11.6065 116.692 11.6877 116.437 11.8501C116.185 12.0125 116.061 12.223 116.064 12.4815C116.061 12.7036 116.142 12.8842 116.308 13.0234C116.477 13.1626 116.755 13.277 117.143 13.3665L118.445 13.6449C119.168 13.8007 119.705 14.0476 120.056 14.3857C120.411 14.7237 120.59 15.1662 120.593 15.7131C120.59 16.1937 120.449 16.6179 120.17 16.9858C119.895 17.3504 119.513 17.6354 119.022 17.8409C118.531 18.0464 117.968 18.1491 117.332 18.1491C116.397 18.1491 115.645 17.9536 115.075 17.5625C114.504 17.1681 114.165 16.6196 114.055 15.9169L115.81 15.7479C115.89 16.0926 116.059 16.3527 116.317 16.5284C116.576 16.7041 116.912 16.7919 117.327 16.7919C117.754 16.7919 118.097 16.7041 118.356 16.5284C118.618 16.3527 118.749 16.1357 118.749 15.8771C118.749 15.6584 118.664 15.4777 118.495 15.3352C118.329 15.1927 118.071 15.0833 117.719 15.0071L116.417 14.7337C115.684 14.5812 115.143 14.3243 114.791 13.9631C114.44 13.5985 114.266 13.1378 114.269 12.581C114.266 12.1103 114.393 11.7027 114.652 11.358C114.914 11.0099 115.277 10.7415 115.741 10.5526C116.208 10.3603 116.747 10.2642 117.357 10.2642C118.251 10.2642 118.956 10.4548 119.469 10.8359C119.987 11.2171 120.306 11.7325 120.429 12.3821Z" fill="#E6E6E6"/>
<path d="M186.371 7.81818V18H184.731L179.933 11.0646H179.849V18H178.004V7.81818H179.655L184.447 14.7585H184.537V7.81818H186.371ZM191.682 18.1491C190.917 18.1491 190.256 17.9901 189.699 17.6719C189.145 17.3504 188.719 16.8963 188.421 16.3097C188.123 15.7197 187.974 15.0253 187.974 14.2266C187.974 13.4411 188.123 12.7517 188.421 12.1584C188.723 11.5618 189.144 11.0978 189.684 10.7663C190.224 10.4316 190.859 10.2642 191.588 10.2642C192.059 10.2642 192.503 10.3404 192.92 10.4929C193.341 10.642 193.712 10.8741 194.034 11.1889C194.359 11.5038 194.614 11.9048 194.8 12.392C194.985 12.8759 195.078 13.4527 195.078 14.1222V14.674H188.819V13.4609H193.353C193.349 13.1162 193.275 12.8097 193.129 12.5412C192.983 12.2694 192.779 12.0556 192.518 11.8999C192.259 11.7441 191.957 11.6662 191.613 11.6662C191.245 11.6662 190.922 11.7557 190.643 11.9347C190.365 12.1103 190.148 12.3423 189.992 12.6307C189.84 12.9157 189.762 13.2289 189.758 13.5703V14.6293C189.758 15.0734 189.84 15.4545 190.002 15.7727C190.164 16.0876 190.391 16.3295 190.683 16.4986C190.975 16.6643 191.316 16.7472 191.707 16.7472C191.969 16.7472 192.206 16.7107 192.418 16.6378C192.63 16.5616 192.814 16.4505 192.97 16.3047C193.126 16.1589 193.243 15.9782 193.323 15.7628L195.003 15.9517C194.897 16.3958 194.695 16.7836 194.397 17.1151C194.102 17.4432 193.724 17.6984 193.263 17.8807C192.803 18.0597 192.276 18.1491 191.682 18.1491ZM198.135 18L195.978 10.3636H197.812L199.155 15.733H199.224L200.596 10.3636H202.411L203.783 15.7031H203.858L205.18 10.3636H207.02L204.857 18H202.983L201.551 12.8395H201.447L200.015 18H198.135ZM211.438 18.1491C210.673 18.1491 210.011 17.9901 209.455 17.6719C208.901 17.3504 208.475 16.8963 208.177 16.3097C207.879 15.7197 207.729 15.0253 207.729 14.2266C207.729 13.4411 207.879 12.7517 208.177 12.1584C208.478 11.5618 208.899 11.0978 209.44 10.7663C209.98 10.4316 210.615 10.2642 211.344 10.2642C211.814 10.2642 212.259 10.3404 212.676 10.4929C213.097 10.642 213.468 10.8741 213.79 11.1889C214.115 11.5038 214.37 11.9048 214.555 12.392C214.741 12.8759 214.834 13.4527 214.834 14.1222V14.674H208.575V13.4609H213.109C213.105 13.1162 213.031 12.8097 212.885 12.5412C212.739 12.2694 212.535 12.0556 212.273 11.8999C212.015 11.7441 211.713 11.6662 211.369 11.6662C211.001 11.6662 210.678 11.7557 210.399 11.9347C210.121 12.1103 209.904 12.3423 209.748 12.6307C209.595 12.9157 209.518 13.2289 209.514 13.5703V14.6293C209.514 15.0734 209.595 15.4545 209.758 15.7727C209.92 16.0876 210.147 16.3295 210.439 16.4986C210.731 16.6643 211.072 16.7472 211.463 16.7472C211.725 16.7472 211.962 16.7107 212.174 16.6378C212.386 16.5616 212.57 16.4505 212.726 16.3047C212.882 16.1589 212.999 15.9782 213.079 15.7628L214.759 15.9517C214.653 16.3958 214.451 16.7836 214.153 17.1151C213.858 17.4432 213.48 17.6984 213.019 17.8807C212.558 18.0597 212.031 18.1491 211.438 18.1491ZM222.392 12.3821L220.751 12.5611C220.705 12.3954 220.624 12.2396 220.508 12.0938C220.395 11.9479 220.242 11.8303 220.05 11.7408C219.858 11.6513 219.623 11.6065 219.344 11.6065C218.97 11.6065 218.655 11.6877 218.4 11.8501C218.148 12.0125 218.023 12.223 218.027 12.4815C218.023 12.7036 218.105 12.8842 218.27 13.0234C218.439 13.1626 218.718 13.277 219.106 13.3665L220.408 13.6449C221.131 13.8007 221.668 14.0476 222.019 14.3857C222.374 14.7237 222.553 15.1662 222.556 15.7131C222.553 16.1937 222.412 16.6179 222.133 16.9858C221.858 17.3504 221.475 17.6354 220.985 17.8409C220.494 18.0464 219.931 18.1491 219.295 18.1491C218.36 18.1491 217.608 17.9536 217.037 17.5625C216.467 17.1681 216.128 16.6196 216.018 15.9169L217.773 15.7479C217.853 16.0926 218.022 16.3527 218.28 16.5284C218.539 16.7041 218.875 16.7919 219.29 16.7919C219.717 16.7919 220.06 16.7041 220.319 16.5284C220.581 16.3527 220.711 16.1357 220.711 15.8771C220.711 15.6584 220.627 15.4777 220.458 15.3352C220.292 15.1927 220.034 15.0833 219.682 15.0071L218.38 14.7337C217.647 14.5812 217.105 14.3243 216.754 13.9631C216.403 13.5985 216.229 13.1378 216.232 12.581C216.229 12.1103 216.356 11.7027 216.615 11.358C216.877 11.0099 217.24 10.7415 217.704 10.5526C218.171 10.3603 218.71 10.2642 219.319 10.2642C220.214 10.2642 220.919 10.4548 221.432 10.8359C221.949 11.2171 222.269 11.7325 222.392 12.3821ZM227.853 10.3636V11.7557H223.463V10.3636H227.853ZM224.547 8.53409H226.347V15.7031C226.347 15.9451 226.383 16.1307 226.456 16.2599C226.532 16.3859 226.632 16.4721 226.754 16.5185C226.877 16.5649 227.013 16.5881 227.162 16.5881C227.275 16.5881 227.378 16.5798 227.47 16.5632C227.566 16.5466 227.639 16.5317 227.689 16.5185L227.992 17.9254C227.896 17.9586 227.759 17.995 227.58 18.0348C227.404 18.0746 227.189 18.0978 226.933 18.1044C226.483 18.1177 226.077 18.0497 225.715 17.9006C225.354 17.7481 225.067 17.5128 224.855 17.1946C224.646 16.8764 224.544 16.4787 224.547 16.0014V8.53409Z" fill="#E6E6E6"/>
<path d="M254.825 9.9126L251 13.7293L247.175 9.9126L246 11.0876L251 16.0876L256 11.0876L254.825 9.9126Z" fill="#E6E6E6"/>
</svg>
